<svg xmlns="http://www.w3.org/2000/svg" xmlns:xlink="http://www.w3.org/1999/xlink" width="500" zoomAndPan="magnify" viewBox="0 0 375 374.999991" height="500" preserveAspectRatio="xMidYMid meet" version="1.0"><defs><g/><clipPath id="4f833e27f0"><path d="M 118.554688 110 L 217 110 L 217 243.019531 L 118.554688 243.019531 Z M 118.554688 110 " clip-rule="nonzero"/></clipPath><clipPath id="274bbbdf44"><path d="M 180 93.019531 L 236 93.019531 L 236 206 L 180 206 Z M 180 93.019531 " clip-rule="nonzero"/></clipPath><clipPath id="c5a6ff3ff9"><path d="M 182 113 L 248.304688 113 L 248.304688 225 L 182 225 Z M 182 113 " clip-rule="nonzero"/></clipPath></defs><rect x="-37.5" width="450" fill="#ffffff" y="-37.499999" height="449.999989" fill-opacity="1"/><rect x="-37.5" width="450" fill="#646298" y="-37.499999" height="449.999989" fill-opacity="1"/><path fill="#ffffff" d="M 183.246094 112.296875 L 133.171875 94.625 L 133.171875 203.613281 L 183.246094 187.414062 L 183.246094 112.296875 " fill-opacity="1" fill-rule="nonzero"/><path fill="#646298" d="M 182.046875 112.242188 L 234.039062 94.570312 L 234.039062 203.5625 L 182.046875 187.359375 L 182.046875 112.242188 " fill-opacity="1" fill-rule="nonzero"/><path fill="#646298" d="M 120.183594 222.691406 L 182.046875 202.074219 L 182.046875 112.230469 L 120.183594 132.851562 L 120.183594 222.699219 " fill-opacity="1" fill-rule="nonzero"/><path fill="#ffffff" d="M 210.234375 224.050781 L 219 238.476562 L 223.628906 225.078125 L 210.242188 224.050781 M 141.21875 143.199219 C 140.890625 142.875 141.644531 145.835938 142.699219 146.902344 C 144.5625 148.785156 146.023438 149.027344 146.800781 149.058594 C 148.515625 149.125 150.636719 148.628906 151.898438 148.101562 C 153.117188 147.582031 155.25 146.492188 156.058594 144.902344 C 156.226562 144.5625 156.703125 143.992188 156.410156 142.582031 C 156.1875 141.5 155.496094 141.117188 154.652344 141.179688 C 153.8125 141.234375 151.261719 141.914062 150.023438 142.296875 L 145.144531 143.683594 C 144.039062 143.917969 141.605469 143.566406 141.21875 143.199219 M 172.421875 178.578125 C 171.933594 178.398438 161.847656 174.222656 160.417969 173.539062 C 159.25 172.976562 156.382812 171.761719 155.03125 171.210938 C 158.832031 165.351562 161.234375 160.925781 161.550781 160.253906 L 166.261719 150.660156 C 166.351562 150.171875 166.464844 148.355469 166.378906 147.925781 C 166.289062 147.484375 164.8125 148.332031 162.8125 149.007812 C 160.804688 149.683594 156.992188 152.164062 155.519531 152.476562 C 154.042969 152.785156 149.316406 154.574219 146.90625 155.375 C 144.496094 156.179688 139.917969 157.574219 138.035156 158.082031 C 136.15625 158.589844 134.507812 158.628906 133.457031 158.949219 C 132.402344 159.265625 133.597656 160.425781 133.875 160.867188 C 134.152344 161.308594 135.148438 162.394531 136.308594 162.695312 C 137.464844 163 139.382812 162.878906 140.257812 162.679688 C 141.136719 162.476562 142.640625 161.738281 142.84375 161.414062 C 143.050781 161.085938 142.738281 160.074219 143.078125 159.769531 C 143.425781 159.46875 148.03125 158.390625 149.769531 157.867188 C 151.507812 157.332031 158.160156 155.042969 159.0625 155.15625 C 158.777344 156.105469 153.425781 166.703125 151.703125 169.867188 C 149.980469 173.027344 139.964844 186.9375 137.832031 189.390625 C 136.214844 191.253906 132.292969 196.023438 130.933594 197.097656 C 131.277344 197.191406 133.707031 196.984375 134.148438 196.710938 C 136.90625 195.011719 141.496094 189.296875 142.976562 187.554688 C 147.371094 182.402344 151.238281 176.988281 154.292969 172.339844 L 154.296875 172.339844 C 154.894531 172.589844 159.714844 176.519531 160.976562 177.390625 C 162.234375 178.261719 167.199219 181.03125 168.277344 181.492188 C 169.351562 181.957031 173.484375 183.863281 173.667969 183.21875 C 173.839844 182.574219 172.917969 178.761719 172.4375 178.578125 " fill-opacity="1" fill-rule="nonzero"/><g clip-path="url(#4f833e27f0)"><path fill="#ffffff" d="M 149.125 231.101562 C 150.089844 231.691406 151.003906 232.175781 152.023438 232.660156 C 154.0625 233.679688 156.371094 234.753906 158.574219 235.558594 C 161.519531 236.667969 164.527344 237.578125 167.59375 238.296875 C 169.257812 238.671875 171.082031 239 172.855469 239.261719 C 173.015625 239.261719 177.792969 239.851562 178.761719 239.851562 L 183.59375 239.851562 C 185.472656 239.691406 187.242188 239.585938 189.121094 239.316406 C 190.625 239.101562 192.289062 238.832031 193.902344 238.457031 C 195.082031 238.1875 196.316406 237.921875 197.5 237.542969 C 198.625 237.222656 199.914062 236.792969 201.148438 236.363281 C 201.953125 236.09375 202.8125 235.71875 203.671875 235.394531 C 204.453125 235.035156 205.238281 234.695312 206.035156 234.375 C 207 233.945312 208.128906 233.355469 209.203125 232.820312 C 210.0625 232.390625 211.027344 231.851562 211.941406 231.316406 C 212.644531 230.941406 214.25 229.703125 215.109375 229.703125 C 216.074219 229.703125 216.71875 230.5625 216.71875 231.316406 C 216.71875 232.871094 214.625 233.355469 213.660156 234.054688 C 212.640625 234.757812 211.40625 235.289062 210.332031 235.878906 C 208.183594 237.007812 205.980469 237.972656 203.890625 238.777344 C 201.152344 239.796875 198.144531 240.769531 195.460938 241.414062 C 194.441406 241.628906 193.417969 241.898438 192.398438 242.058594 C 191.863281 242.167969 186.277344 243.027344 184.722656 243.027344 L 177.632812 243.027344 C 175.753906 242.867188 173.765625 242.652344 171.886719 242.382812 C 170.222656 242.113281 168.453125 241.792969 166.785156 241.414062 C 165.496094 241.148438 164.101562 240.769531 162.859375 240.394531 C 160.714844 239.804688 158.617188 239.046875 156.578125 238.25 C 152.875 236.851562 149.007812 235.027344 145.359375 232.613281 C 144.714844 232.183594 144.65625 231.753906 144.65625 231.265625 C 144.65625 230.457031 145.246094 229.707031 146.210938 229.707031 C 147.070312 229.707031 148.789062 230.941406 149.113281 231.101562 M 183.636719 112.027344 L 183.636719 202.222656 C 183.578125 202.519531 183.453125 202.789062 183.261719 203.027344 C 183.15625 203.1875 182.941406 203.402344 182.777344 203.457031 C 181.429688 203.992188 120.984375 224.285156 120.175781 224.285156 C 119.53125 224.285156 118.941406 223.855469 118.621094 223.160156 C 118.621094 223.105469 118.566406 223.050781 118.566406 222.945312 L 118.566406 132.699219 C 118.675781 132.429688 118.726562 132.054688 118.941406 131.839844 C 119.371094 131.25 120.125 131.136719 120.605469 130.980469 C 121.519531 130.660156 181.058594 110.6875 181.917969 110.6875 C 182.457031 110.6875 183.636719 111.0625 183.636719 112.035156 Z M 180.355469 200.878906 L 121.851562 220.367188 L 121.851562 134.042969 L 180.371094 114.554688 L 180.371094 200.886719 " fill-opacity="1" fill-rule="evenodd"/></g><g clip-path="url(#274bbbdf44)"><path fill="#ffffff" d="M 235.671875 94.734375 L 235.671875 203.34375 C 235.617188 204.578125 234.757812 205.113281 233.953125 205.113281 C 233.253906 205.113281 228.207031 203.398438 227.347656 203.121094 L 207.054688 196.839844 L 202.542969 195.390625 C 201.210938 195.003906 199.886719 194.59375 198.570312 194.15625 L 181.230469 188.679688 C 181.015625 188.628906 180.480469 187.875 180.480469 187.714844 L 180.480469 111.859375 C 180.585938 111.589844 180.695312 111.269531 180.960938 111.054688 C 181.390625 110.570312 199.804688 104.449219 207.054688 102.035156 C 208.988281 101.335938 233.199219 93.015625 233.953125 93.015625 C 234.917969 93.015625 235.671875 93.714844 235.671875 94.734375 Z M 232.390625 201.304688 L 183.695312 186.164062 L 183.695312 113.414062 L 232.390625 96.882812 L 232.390625 201.308594 " fill-opacity="1" fill-rule="evenodd"/></g><g clip-path="url(#c5a6ff3ff9)"><path fill="#ffffff" d="M 248.027344 224.050781 L 182.976562 203.316406 L 183.25 113.054688 L 248.03125 133.679688 L 248.03125 224.058594 " fill-opacity="1" fill-rule="nonzero"/></g><path fill="#646298" d="M 211.402344 138.820312 L 219.78125 141.359375 L 235.050781 196.390625 L 226.441406 193.78125 L 223.347656 182.484375 L 205.558594 177.089844 L 201.730469 186.292969 L 193.121094 183.679688 L 211.398438 138.820312 Z M 215.234375 153.390625 L 208.847656 168.824219 L 220.585938 172.382812 L 215.234375 153.390625 " fill-opacity="1" fill-rule="evenodd"/><g fill="#ebf5ed" fill-opacity="1"><g transform="translate(123.464256, 246.737987)"><g><path d="M 11 -7.734375 C 11.738281 -7.378906 12.394531 -6.894531 12.96875 -6.28125 C 13.539062 -5.675781 13.960938 -4.992188 14.234375 -4.234375 L 12.59375 -3.4375 C 12.40625 -4.03125 12.109375 -4.566406 11.703125 -5.046875 C 11.296875 -5.535156 10.820312 -5.90625 10.28125 -6.15625 C 9.238281 -6.644531 8.1875 -6.695312 7.125 -6.3125 C 6.0625 -5.9375 5.289062 -5.234375 4.8125 -4.203125 C 4.320312 -3.160156 4.269531 -2.109375 4.65625 -1.046875 C 5.050781 0.00390625 5.769531 0.773438 6.8125 1.265625 C 7.914062 1.773438 9.09375 1.816406 10.34375 1.390625 L 10.84375 3.0625 C 10.050781 3.332031 9.222656 3.457031 8.359375 3.4375 C 7.492188 3.414062 6.691406 3.226562 5.953125 2.875 C 4.410156 2.15625 3.351562 1.035156 2.78125 -0.484375 C 2.207031 -2.015625 2.273438 -3.535156 2.984375 -5.046875 C 3.691406 -6.546875 4.816406 -7.546875 6.359375 -8.046875 C 7.898438 -8.554688 9.445312 -8.453125 11 -7.734375 Z M 11 -7.734375 "/></g></g></g><g fill="#ebf5ed" fill-opacity="1"><g transform="translate(136.312996, 252.639902)"><g><path d="M 11.015625 3.671875 L 9.15625 3.0625 L 10.6875 -1.5 L 4.84375 -3.453125 L 3.3125 1.109375 L 1.453125 0.484375 L 5.140625 -10.546875 L 7 -9.921875 L 5.390625 -5.125 L 11.234375 -3.171875 L 12.84375 -7.96875 L 14.703125 -7.359375 Z M 11.015625 3.671875 "/></g></g></g><g fill="#ebf5ed" fill-opacity="1"><g transform="translate(151.271985, 257.448664)"><g><path d="M 9.375 -0.75 L 3.640625 -1.9375 L 2.015625 0.421875 L 0.015625 0 L 7.40625 -10.34375 L 9.375 -9.9375 L 11.984375 2.484375 L 9.9375 2.046875 Z M 9 -2.609375 L 7.90625 -8.09375 L 4.71875 -3.484375 Z M 9 -2.609375 "/></g></g></g><g fill="#ebf5ed" fill-opacity="1"><g transform="translate(165.750685, 260.242032)"><g><path d="M 10.40625 -8.875 L 6.734375 -9.234375 L 5.75 0.578125 L 3.796875 0.375 L 4.78125 -9.4375 L 1.140625 -9.796875 L 1.3125 -11.546875 L 10.578125 -10.625 Z M 10.40625 -8.875 "/></g></g></g><g fill="#ebf5ed" fill-opacity="1"><g transform="translate(177.747487, 261.329856)"><g><path d="M 9.53125 -9.796875 L 5.84375 -9.828125 L 5.78125 0.03125 L 3.8125 0.03125 L 3.875 -9.828125 L 0.21875 -9.859375 L 0.234375 -11.625 L 9.546875 -11.5625 Z M 9.53125 -9.796875 "/></g></g></g><g fill="#ebf5ed" fill-opacity="1"><g transform="translate(189.825746, 261.3178)"><g><path d="M 8.875 -10.71875 L 2.5625 -10.140625 L 2.84375 -7.03125 L 8.515625 -7.546875 L 8.6875 -5.796875 L 3.015625 -5.28125 L 3.3125 -2.09375 L 9.828125 -2.6875 L 9.984375 -0.921875 L 1.53125 -0.140625 L 0.46875 -11.71875 L 8.71875 -12.484375 Z M 8.875 -10.71875 "/></g></g></g><g fill="#ebf5ed" fill-opacity="1"><g transform="translate(203.172928, 259.97762)"><g><path d="M 8.734375 -1.765625 L 5.9375 -4.78125 C 5.832031 -4.757812 5.660156 -4.726562 5.421875 -4.6875 L 2.71875 -4.125 L 3.421875 -0.6875 L 1.5 -0.3125 L -0.8125 -11.703125 L 3.8125 -12.640625 C 5.257812 -12.929688 6.453125 -12.816406 7.390625 -12.296875 C 8.328125 -11.785156 8.921875 -10.910156 9.171875 -9.671875 C 9.359375 -8.765625 9.316406 -7.953125 9.046875 -7.234375 C 8.773438 -6.515625 8.28125 -5.9375 7.5625 -5.5 L 10.90625 -2.21875 Z M 2.375 -5.84375 L 5.078125 -6.40625 C 6.910156 -6.769531 7.671875 -7.71875 7.359375 -9.25 C 7.054688 -10.71875 5.988281 -11.269531 4.15625 -10.90625 L 1.453125 -10.34375 Z M 2.375 -5.84375 "/></g></g></g><g fill="#ebf5ed" fill-opacity="1"><g transform="translate(217.239859, 256.878492)"><g><path d="M 3.625 -5.671875 L -0.28125 -4.515625 L -0.65625 -5.78125 L 3.25 -6.9375 Z M 3.625 -5.671875 "/></g></g></g><g fill="#ebf5ed" fill-opacity="1"><g transform="translate(225.423473, 254.473624)"><g><path d="M 7.421875 -5.78125 L 1.984375 -3.609375 L 1.921875 -0.765625 L 0.015625 0 L 0.5 -12.703125 L 2.34375 -13.453125 L 11.359375 -4.53125 L 9.421875 -3.75 Z M 6.0625 -7.125 L 2.125 -11.109375 L 2 -5.515625 Z M 6.0625 -7.125 "/></g></g></g><g fill="#ebf5ed" fill-opacity="1"><g transform="translate(238.919114, 248.81821)"><g><path d="M 3.109375 -1.5625 L 1.375 -0.6875 L -3.828125 -11.078125 L -2.09375 -11.953125 Z M 3.109375 -1.5625 "/></g></g></g></svg>